<svg width="786" height="243" viewBox="0 0 786 243" fill="none" xmlns="http://www.w3.org/2000/svg">
<path d="M48.329 178.023C37.8577 178.023 28.9169 175.768 21.5064 171.259C14.2571 166.589 8.86032 160.631 5.3162 153.385C1.77207 145.977 0 138.248 0 130.196C0 120.051 2.73865 111.194 8.21594 103.625C13.6932 95.8956 20.7009 90.0179 29.2391 85.9921C37.9383 81.8052 46.7181 79.7117 55.5784 79.7117C63.1499 79.7117 69.916 81.2415 75.8766 84.3012C81.9983 87.3608 85.0591 91.4672 85.0591 96.6203C85.0591 99.3578 84.012 101.693 81.9177 103.625C79.9846 105.558 77.1654 106.524 73.4601 106.524C67.1774 106.524 62.7472 102.981 60.1697 95.8956C58.7198 91.8698 57.0283 89.0517 55.0951 87.4414C53.323 85.67 50.5038 84.7843 46.6375 84.7843C39.066 84.7843 33.0248 88.2465 28.5141 95.171C24.1645 101.934 21.9897 111.033 21.9897 122.466C21.9897 135.832 25.0506 146.702 31.1722 155.076C37.455 163.288 47.2014 167.395 60.4113 167.395C64.7609 167.395 68.7078 166.831 72.2519 165.704C75.9571 164.577 79.904 162.805 84.0925 160.39H84.3342C84.8175 160.39 85.2202 160.631 85.5424 161.114C86.0257 161.597 86.1062 162 85.784 162.322C79.8235 167.636 73.9434 171.581 68.1439 174.158C62.3445 176.735 55.7395 178.023 48.329 178.023Z" fill="#540995"></path>
<path d="M139.169 177.781C130.47 177.781 123.703 175.124 118.871 169.81C114.038 164.335 111.621 156.927 111.621 147.587V111.596C111.621 105.96 110.977 101.854 109.688 99.2773C108.56 96.5398 106.708 95.171 104.13 95.171C102.036 95.171 99.7806 95.8151 97.3641 97.1034H97.1225C96.4781 97.1034 95.9948 96.7008 95.6726 95.8956C95.3504 95.0904 95.431 94.5268 95.9143 94.2048L126.362 79.9533L127.57 79.7117C128.214 79.7117 128.939 80.0338 129.745 80.6779C130.55 81.3221 130.953 81.8857 130.953 82.3688V137.201C130.953 146.219 132.564 152.982 135.786 157.491C139.169 161.839 144.243 164.013 151.009 164.013C156.164 164.013 161.32 162.564 166.475 159.665C171.791 156.605 176.14 152.66 179.523 147.829L180.973 150.728C167.763 168.763 153.829 177.781 139.169 177.781ZM194.264 147.829C194.264 153.304 194.828 157.249 195.955 159.665C197.083 161.919 199.016 163.047 201.755 163.047C203.688 163.047 207.313 162.081 212.629 160.148L213.112 159.907C213.595 159.907 213.998 160.309 214.32 161.114C214.643 161.919 214.562 162.483 214.079 162.805L182.423 178.023L181.457 178.264C179.685 178.264 178.154 176.251 176.865 172.226C175.577 168.2 174.932 162.805 174.932 156.042V111.596C174.932 105.96 174.288 101.854 172.999 99.2773C171.871 96.5398 170.019 95.171 167.441 95.171C165.508 95.171 163.253 95.8151 160.675 97.1034H160.434C159.789 97.1034 159.306 96.7008 158.984 95.8956C158.661 94.9294 158.823 94.3658 159.467 94.2048L189.914 79.9533L190.881 79.7117C191.525 79.7117 192.25 80.0338 193.056 80.6779C193.861 81.3221 194.264 81.8857 194.264 82.3688V147.829Z" fill="#540995"></path>
<path d="M270.135 178.023C260.308 178.023 251.77 175.849 244.52 171.501C237.432 167.153 231.955 161.436 228.089 154.351C224.383 147.265 222.531 139.616 222.531 131.404C222.531 121.903 224.867 113.207 229.538 105.316C234.21 97.4254 240.574 91.2256 248.628 86.7167C256.844 82.0467 265.946 79.7117 275.934 79.7117C285.6 79.7117 293.011 82.0467 298.166 86.7167C303.482 91.3867 306.14 98.3111 306.14 107.49C306.14 109.906 305.898 111.677 305.415 112.804C305.093 113.931 304.448 114.495 303.482 114.495H283.667C284.472 94.5268 278.995 84.5427 267.235 84.5427C259.986 84.5427 254.267 87.8439 250.078 94.4463C246.051 101.049 244.037 109.986 244.037 121.258C244.037 135.429 247.34 146.702 253.945 155.076C260.55 163.288 269.893 167.395 281.975 167.395C286.486 167.395 290.272 166.831 293.333 165.704C296.394 164.577 300.421 162.725 305.415 160.148L305.898 159.907C306.22 159.907 306.543 160.229 306.865 160.873C307.348 161.517 307.429 162 307.106 162.322C301.307 167.797 295.427 171.823 289.466 174.4C283.506 176.815 277.062 178.023 270.135 178.023ZM236.788 110.63L290.433 109.664V114.495L237.029 114.737L236.788 110.63Z" fill="#540995"></path>
<path d="M378.165 178.264C363.828 178.264 351.343 173.514 340.71 164.013L354.726 138.167C354.726 146.38 356.256 153.143 359.317 158.457C362.539 163.771 366.405 167.636 370.916 170.052C375.588 172.306 380.098 173.433 384.448 173.433C392.342 173.433 398.383 169.891 402.571 162.805C406.76 155.72 408.854 145.655 408.854 132.611C408.854 118.44 406.357 107.812 401.363 100.727C396.369 93.4801 389.523 89.8569 380.823 89.8569C371.641 89.8569 361.895 94.5268 351.584 103.867L349.41 101.934C356.337 94.6879 362.861 89.0517 368.983 85.0258C375.266 80.839 382.595 78.7455 390.972 78.7455C398.061 78.7455 404.585 80.4364 410.546 83.8181C416.667 87.1998 421.5 92.2724 425.044 99.0358C428.75 105.799 430.602 114.012 430.602 123.674C430.602 135.268 428.105 145.172 423.111 153.385C418.278 161.597 411.835 167.797 403.78 171.984C395.725 176.171 387.187 178.264 378.165 178.264ZM323.312 176.574C322.667 176.574 322.265 176.251 322.104 175.607C321.942 175.124 322.104 174.722 322.587 174.4C326.936 171.662 330.078 168.522 332.011 164.979C334.105 161.275 335.152 156.364 335.152 150.245V32.1262C335.152 26.4901 334.589 22.4642 333.461 20.0487C332.494 17.4722 330.642 16.1839 327.903 16.1839C325.326 16.1839 322.104 17.1501 318.237 19.0825H317.996C317.351 19.0825 316.868 18.6799 316.546 17.8748C316.224 17.0696 316.224 16.506 316.546 16.1839L350.134 0.241548L351.343 0C351.987 0 352.712 0.322068 353.517 0.966205C354.323 1.61034 354.726 2.17396 354.726 2.65705V162.322L323.795 176.574H323.312Z" fill="#D4028A"></path>
<path d="M495.526 178.264C485.86 178.264 477.322 176.01 469.911 171.501C462.501 166.831 456.782 160.631 452.754 152.902C448.727 145.011 446.713 136.476 446.713 127.297C446.713 116.83 449.291 107.973 454.446 100.727C459.762 93.3191 466.448 87.8439 474.502 84.3012C482.718 80.5974 491.095 78.7455 499.634 78.7455C509.46 78.7455 517.999 81.0805 525.248 85.7505C532.658 90.4205 538.297 96.6203 542.163 104.35C546.029 111.918 547.963 120.051 547.963 128.747C547.963 138.409 545.546 147.024 540.713 154.592C536.041 162.161 529.678 168.039 521.623 172.226C513.568 176.251 504.869 178.264 495.526 178.264ZM502.775 173.433C509.863 173.433 515.34 170.293 519.207 164.013C523.073 157.733 525.006 148.554 525.006 136.476C525.006 125.687 523.476 116.266 520.415 108.215C517.515 100.163 513.488 94.0437 508.333 89.8569C503.339 85.67 497.781 83.5765 491.659 83.5765C484.41 83.5765 478.852 86.5557 474.986 92.5139C471.28 98.4722 469.428 107.249 469.428 118.843C469.428 129.31 470.878 138.731 473.777 147.104C476.677 155.317 480.624 161.758 485.618 166.428C490.773 171.098 496.492 173.433 502.775 173.433Z" fill="#D4028A"></path>
<path d="M602.17 178.264C595.243 178.264 588.88 176.413 583.08 172.709C577.281 168.844 572.69 163.369 569.307 156.283C565.924 149.198 564.232 140.905 564.232 131.404C564.232 119.487 567.051 109.583 572.69 101.693C578.328 93.8022 585.416 88.005 593.954 84.3012C602.493 80.5974 611.031 78.7455 619.569 78.7455C630.04 78.7455 639.948 81.6441 649.291 87.4414L644.7 105.799C640.834 98.5527 636.565 93.2386 631.893 89.8569C627.382 86.3141 621.744 84.5427 614.978 84.5427C605.795 84.5427 598.626 87.7634 593.471 94.2048C588.477 100.646 585.98 110.55 585.98 123.915C585.98 137.442 588.638 148.151 593.954 156.042C599.271 163.771 606.037 167.636 614.253 167.636C620.374 167.636 625.852 166.026 630.685 162.805C635.679 159.584 640.995 154.915 646.633 148.795L648.808 150.728C641.397 158.94 634.068 165.623 626.818 170.776C619.73 175.768 611.514 178.264 602.17 178.264ZM659.44 147.587C659.44 153.224 660.004 157.249 661.132 159.665C662.259 161.919 664.193 163.047 666.931 163.047C670.153 163.047 673.778 162.081 677.805 160.148H678.047C678.53 160.148 678.933 160.551 679.255 161.356C679.738 162.161 679.738 162.644 679.255 162.805L648.325 177.781L646.875 178.023C644.942 178.023 643.25 176.01 641.8 171.984C640.511 167.958 639.867 162.403 639.867 155.317V32.1262C639.867 26.4901 639.303 22.4642 638.175 20.0487C637.209 17.4722 635.356 16.1839 632.618 16.1839C630.846 16.1839 627.624 17.1501 622.952 19.0825H622.469C621.824 19.0825 621.341 18.6799 621.019 17.8748C620.696 17.0696 620.777 16.5865 621.26 16.4255L655.091 0.241548L656.057 0C656.702 0 657.427 0.322068 658.232 0.966205C659.037 1.61034 659.44 2.17396 659.44 2.65705V147.587Z" fill="#D4028A"></path>
<path d="M785.517 81.8857C785.839 81.8857 786 82.3688 786 83.335C786 84.3012 785.839 84.7843 785.517 84.7843C780.684 84.7843 776.495 86.7167 772.951 90.5815C769.568 94.4463 766.427 100.324 763.527 108.215L735.738 181.888C729.938 197.347 724.381 209.505 719.064 218.362C713.748 227.219 708.351 233.499 702.874 237.203C697.397 241.068 691.356 243 684.751 243C680.24 243 676.776 242.034 674.36 240.101C671.782 238.33 670.494 235.592 670.494 231.889C670.494 228.829 671.541 226.414 673.635 224.642C675.568 222.871 677.985 221.985 680.884 221.985C682.818 221.985 684.348 222.227 685.476 222.71C686.764 223.193 688.295 223.998 690.067 225.125C692.806 227.219 695.625 228.265 698.524 228.265C702.552 228.265 706.177 226.494 709.399 222.951C712.782 219.57 716.326 213.933 720.031 206.043C723.897 198.152 728.569 186.799 734.046 171.984L733.321 183.095L693.45 101.934C689.745 94.8489 686.926 90.2594 684.992 88.166C683.059 85.9115 680.562 84.7843 677.501 84.7843C677.179 84.7843 677.018 84.3012 677.018 83.335C677.018 82.3688 677.179 81.8857 677.501 81.8857C681.69 81.8857 684.912 81.9662 687.167 82.1272L696.591 82.3688L713.023 82.1272C715.44 81.9662 718.742 81.8857 722.931 81.8857C723.414 81.8857 723.656 82.3688 723.656 83.335C723.656 84.3012 723.414 84.7843 722.931 84.7843C718.581 84.7843 715.359 85.1869 713.265 85.9921C711.171 86.6362 710.123 87.8439 710.123 89.6153C710.123 90.9036 710.607 92.4334 711.573 94.2048L742.987 158.699L735.496 171.501L757.486 108.215C758.775 104.028 759.419 100.566 759.419 97.828C759.419 89.1322 754.022 84.7843 743.229 84.7843C742.907 84.7843 742.746 84.3012 742.746 83.335C742.746 82.3688 742.907 81.8857 743.229 81.8857C747.578 81.8857 750.881 81.9662 753.136 82.1272L767.635 82.3688L777.059 82.1272C778.831 81.9662 781.65 81.8857 785.517 81.8857Z" fill="#D4028A"></path>
</svg>